<?xml version="1.0" encoding="UTF-8"?>
<!DOCTYPE svg PUBLIC "-//W3C//DTD SVG 1.1//EN" "http://www.w3.org/Graphics/SVG/1.1/DTD/svg11.dtd">
<!-- Creator: CorelDRAW X6 -->
<svg xmlns="http://www.w3.org/2000/svg" xml:space="preserve" width="37.4345mm" height="32.0386mm" version="1.1" style="shape-rendering:geometricPrecision; text-rendering:geometricPrecision; image-rendering:optimizeQuality; fill-rule:evenodd; clip-rule:evenodd"
viewBox="0 0 1588 1359"
 xmlns:xlink="http://www.w3.org/1999/xlink">
 <defs>
  <style type="text/css">
   <![CDATA[
    .fil1 {fill:none}
    .fil0 {fill:#E31E24;fill-rule:nonzero}
   ]]>
  </style>
   <clipPath id="id0">
    <path d="M790 7c261,0 472,212 472,473 0,261 -211,472 -472,472 -261,0 -472,-211 -472,-472 0,-261 211,-473 472,-473z"/>
   </clipPath>
 </defs>
 <g id="Layer_x0020_1">
  <metadata id="CorelCorpID_0Corel-Layer"/>
  <path class="fil0" d="M1112 1113c21,-7 43,-4 61,5 19,10 34,27 41,48 6,22 4,44 -6,62 -9,19 -26,34 -47,41 -22,6 -44,4 -63,-6 -18,-9 -33,-26 -40,-47l0 -2 0 0c-7,-21 -4,-42 5,-61 10,-18 27,-33 48,-40l1 0 0 0zm54 19c-15,-8 -33,-10 -50,-5l-1 0c-17,6 -31,18 -38,33 -8,15 -10,34 -5,51l0 0c6,18 18,31 33,39 15,8 33,10 51,4 18,-5 31,-17 39,-33 8,-15 10,-33 4,-50 -5,-18 -17,-31 -33,-39zm171 -163c21,-16 48,-21 72,-17 25,4 48,18 63,40 16,22 21,48 17,72 -5,25 -18,48 -40,63 -22,16 -48,21 -73,17 -24,-4 -47,-18 -62,-39l0 0 -1 -1c-15,-22 -20,-48 -16,-72 4,-25 17,-47 39,-63l0 0 1 0zm70 -2c-21,-4 -43,1 -62,14l0 0c-18,13 -30,32 -33,53 -4,21 0,43 13,61l0 1c14,18 33,30 54,33 21,4 43,-1 61,-14 19,-13 30,-32 34,-53 3,-21 -1,-43 -14,-62 -13,-18 -33,-30 -53,-33zm-194 377c209,-36 314,-132 348,-228 16,-47 16,-94 3,-135 -13,-40 -39,-74 -73,-95 -53,-32 -127,-33 -207,20 -72,64 -147,118 -227,155 -81,38 -168,59 -263,60 -95,-1 -182,-22 -263,-60 -80,-37 -155,-91 -227,-155 -80,-53 -154,-52 -206,-20 -35,21 -60,55 -74,95 -13,41 -13,88 4,135 34,96 138,192 347,228l838 0zm362 -223c-36,101 -144,200 -360,238l-1 0 0 0 -839 0 -1 0 -1 0c-216,-38 -324,-137 -359,-238 -18,-50 -18,-101 -4,-144 14,-44 42,-81 80,-104 57,-35 137,-36 223,21l0 0 1 0c70,64 144,117 224,154 79,36 164,58 256,58 93,0 177,-22 257,-58 79,-37 153,-90 224,-154l0 0 1 0c86,-57 165,-56 222,-21 38,23 66,60 80,104 14,43 14,94 -3,144zm-679 57c14,0 27,6 36,15l0 0c9,9 14,21 14,35 0,14 -5,27 -14,36 -9,9 -22,15 -36,15 -14,0 -26,-6 -35,-15l0 0c-10,-9 -15,-22 -15,-36 0,-14 5,-26 15,-35l0 0 0 0c9,-9 21,-15 35,-15zm25 25c-6,-6 -15,-10 -25,-10 -10,0 -19,4 -25,10l0 0c-6,7 -10,15 -10,25 0,10 4,19 10,25l0 0c6,7 15,11 25,11 10,0 19,-4 25,-11 6,-6 10,-15 10,-25 0,-10 -4,-18 -10,-25l0 0zm-237 -10c-10,0 -19,4 -25,10l0 0c-7,7 -11,15 -11,25 0,10 4,19 11,25l0 0c6,7 15,11 25,11 10,0 18,-4 25,-11 6,-6 10,-15 10,-25 0,-10 -4,-18 -10,-25l0 0c-7,-6 -15,-10 -25,-10zm-36 0l0 0 0 0c9,-9 22,-15 36,-15 14,0 26,6 35,15l0 0c9,9 15,21 15,35 0,14 -6,27 -15,36 -9,9 -21,15 -35,15 -14,0 -27,-6 -36,-15l0 0c-9,-9 -15,-22 -15,-36 0,-14 6,-26 15,-35zm-184 -66c-17,-5 -35,-3 -51,5 -15,8 -27,21 -32,39 -6,17 -4,35 4,50 8,16 21,28 39,33 17,6 35,4 51,-4 15,-8 27,-21 32,-39l1 0c5,-17 3,-36 -5,-51 -8,-15 -21,-27 -39,-33l0 0zm-57 -9c18,-9 39,-12 61,-5l0 0 1 0c21,7 38,22 47,40 10,19 12,40 6,61l0 0 0 2c-7,21 -22,38 -41,47 -18,10 -40,12 -62,6 -21,-7 -38,-22 -47,-41 -10,-18 -12,-40 -6,-62 7,-21 22,-38 41,-48zm-172 -137c-19,-13 -41,-18 -62,-14 -20,3 -40,15 -53,33 -13,19 -17,41 -14,62 4,21 15,40 34,53 18,13 40,18 61,14 21,-3 40,-15 53,-33 14,-19 18,-41 14,-62 -3,-21 -15,-40 -33,-53zm-64 -29c24,-4 50,1 72,17 22,15 36,38 40,63 4,24 -1,50 -16,72 -16,22 -39,36 -63,40 -25,4 -51,-1 -73,-17 -22,-15 -35,-38 -40,-63 -4,-24 1,-50 17,-72 15,-22 38,-36 63,-40z"/>
  <g>
  </g>
  <g style="clip-path:url(#id0)">
   <g>
    <path class="fil0" d="M790 0c71,0 134,54 180,142 45,87 73,206 73,338 0,132 -28,251 -73,337 -46,88 -109,143 -180,143 -71,0 -135,-55 -180,-143 -45,-86 -73,-205 -73,-337 0,-132 28,-251 73,-338 45,-88 109,-142 180,-142zm167 149c-43,-83 -102,-134 -167,-134 -65,0 -124,51 -167,134 -44,85 -71,202 -71,331 0,129 27,246 71,330 43,83 102,135 167,135 65,0 124,-52 167,-135 44,-84 71,-201 71,-330 0,-129 -27,-246 -71,-331z"/>
    <path class="fil0" d="M790 -344c132,0 252,37 338,96 88,60 142,143 142,235 0,92 -54,175 -142,235 -86,59 -206,96 -338,96 -132,0 -252,-37 -338,-96 -88,-60 -142,-143 -142,-235 0,-92 54,-175 142,-235 86,-59 206,-96 338,-96zm330 109c-85,-58 -201,-94 -330,-94 -129,0 -246,36 -330,94 -83,57 -135,135 -135,222 0,87 52,165 135,222 84,58 201,94 330,94 129,0 245,-36 330,-94 83,-57 135,-135 135,-222 0,-87 -52,-165 -135,-222z"/>
    <polygon class="fil0" points="797,7 797,952 782,952 782,7 "/>
    <polygon class="fil0" points="318,472 1262,472 1262,487 318,487 "/>
    <path class="fil0" d="M790 1289c129,0 245,-36 330,-94 83,-57 135,-135 135,-222 0,-87 -52,-165 -135,-223 -85,-57 -201,-93 -330,-93 -129,0 -246,36 -330,93 -83,58 -135,136 -135,223 0,87 52,165 135,222 84,58 201,94 330,94zm338 -81c-86,59 -206,96 -338,96 -132,0 -252,-37 -338,-96 -88,-60 -142,-143 -142,-235 0,-92 54,-175 142,-235 86,-59 206,-96 338,-96 132,0 252,37 338,96 88,60 142,143 142,235 0,92 -54,175 -142,235z"/>
   </g>
  </g>
  <path class="fil1" d="M790 7c261,0 472,212 472,473 0,261 -211,472 -472,472 -261,0 -472,-211 -472,-472 0,-261 211,-473 472,-473z"/>
  <path class="fil0" d="M790 0c132,0 252,54 339,141 87,86 141,206 141,339 0,132 -54,252 -141,339 -87,87 -207,141 -339,141 -133,0 -253,-54 -339,-141 -87,-87 -141,-207 -141,-339 0,-133 54,-253 141,-339 86,-87 206,-141 339,-141zm329 151c-84,-84 -201,-136 -329,-136 -128,0 -245,52 -329,136 -84,84 -136,200 -136,329 0,128 52,245 136,329 84,84 201,136 329,136 128,0 245,-52 329,-136 84,-84 136,-201 136,-329 0,-129 -52,-245 -136,-329z"/>
 </g>
</svg>
